<svg width="18" height="23" viewBox="0 0 18 23" fill="none" xmlns="http://www.w3.org/2000/svg">
<path d="M8.80195 4.9C10.017 4.9 11.002 3.91503 11.002 2.7C11.002 1.48497 10.017 0.5 8.80195 0.5C7.58693 0.5 6.60195 1.48497 6.60195 2.7C6.60195 3.91503 7.58693 4.9 8.80195 4.9Z" fill="white"/>
<path d="M13.081 7.221C12.652 6.792 11.915 6 10.485 6C10.254 6 8.92295 6 7.69095 6C4.66595 5.989 2.20195 3.525 2.20195 0.5H0.00195312C0.00195312 3.976 2.32295 6.924 5.50195 7.881V22.5H7.70195V15.9H9.90195V22.5H12.102V9.355L16.447 13.7L17.998 12.149L13.081 7.221Z" fill="white"/>
</svg>
