<svg width="17" height="16" viewBox="0 0 17 16" fill="none" xmlns="http://www.w3.org/2000/svg">
<path d="M6.19995 15.5H12.95C13.5725 15.5 14.105 15.125 14.33 14.585L16.595 9.2975C16.6625 9.125 16.7 8.945 16.7 8.75V7.25C16.7 6.425 16.025 5.75 15.2 5.75H10.4675L11.18 2.3225L11.2025 2.0825C11.2025 1.775 11.075 1.49 10.8725 1.2875L10.0775 0.5L5.13495 5.4425C4.86495 5.7125 4.69995 6.0875 4.69995 6.5V14C4.69995 14.825 5.37495 15.5 6.19995 15.5ZM6.19995 6.5L9.45495 3.245L8.44995 7.25H15.2V8.75L12.95 14H6.19995V6.5ZM0.199951 6.5H3.19995V15.5H0.199951V6.5Z" fill="#9A1B35"/>
</svg>
