<svg width="17" height="16" viewBox="0 0 17 16" fill="none" xmlns="http://www.w3.org/2000/svg">
<path d="M11.745 0.5C10.3356 0.5 8.9829 1.16213 8.1 2.20845C7.2171 1.16213 5.8644 0.5 4.455 0.5C1.9602 0.5 0 2.4782 0 4.99591C0 8.08583 2.754 10.6035 6.9255 14.4292L8.1 15.5L9.2745 14.421C13.446 10.6035 16.2 8.08583 16.2 4.99591C16.2 2.4782 14.2398 0.5 11.745 0.5ZM8.181 13.2112L8.1 13.2929L8.019 13.2112C4.1634 9.68801 1.62 7.35831 1.62 4.99591C1.62 3.36104 2.835 2.13488 4.455 2.13488C5.7024 2.13488 6.9174 2.94414 7.3467 4.06403H8.8614C9.2826 2.94414 10.4976 2.13488 11.745 2.13488C13.365 2.13488 14.58 3.36104 14.58 4.99591C14.58 7.35831 12.0366 9.68801 8.181 13.2112Z" fill="#9A1B35"/>
</svg>
