<svg width="22" height="23" viewBox="0 0 22 23" fill="none" xmlns="http://www.w3.org/2000/svg">
<path d="M2 22.5C1.45 22.5 0.979333 22.3043 0.588 21.913C0.196 21.521 0 21.05 0 20.5V17.5H2V20.5H5V22.5H2ZM17 22.5V20.5H20V17.5H22V20.5C22 21.05 21.8043 21.521 21.413 21.913C21.021 22.3043 20.55 22.5 20 22.5H17ZM4 18.5V15.15C4 14.8167 4.071 14.5083 4.213 14.225C4.35433 13.9417 4.55833 13.7083 4.825 13.525C5.675 12.8917 6.65433 12.3957 7.763 12.037C8.871 11.679 9.95 11.5 11 11.5C12.05 11.5 13.1293 11.679 14.238 12.037C15.346 12.3957 16.325 12.8917 17.175 13.525C17.4417 13.7083 17.646 13.9417 17.788 14.225C17.9293 14.5083 18 14.8167 18 15.15V18.5H4ZM6 16.5H16V15.15C15.3 14.6333 14.5083 14.2293 13.625 13.938C12.7417 13.646 11.8667 13.5 11 13.5C10.1333 13.5 9.25833 13.6417 8.375 13.925C7.49167 14.2083 6.7 14.6083 6 15.125V16.5ZM11 10.5C9.9 10.5 8.95833 10.1083 8.175 9.325C7.39167 8.54167 7 7.6 7 6.5C7 5.4 7.39167 4.45833 8.175 3.675C8.95833 2.89167 9.9 2.5 11 2.5C12.1 2.5 13.0417 2.89167 13.825 3.675C14.6083 4.45833 15 5.4 15 6.5C15 7.6 14.6083 8.54167 13.825 9.325C13.0417 10.1083 12.1 10.5 11 10.5ZM11 8.5C11.55 8.5 12.021 8.304 12.413 7.912C12.8043 7.52067 13 7.05 13 6.5C13 5.95 12.8043 5.47933 12.413 5.088C12.021 4.696 11.55 4.5 11 4.5C10.45 4.5 9.97933 4.696 9.588 5.088C9.196 5.47933 9 5.95 9 6.5C9 7.05 9.196 7.52067 9.588 7.912C9.97933 8.304 10.45 8.5 11 8.5ZM0 5.5V2.5C0 1.95 0.196 1.479 0.588 1.087C0.979333 0.695667 1.45 0.5 2 0.5H5V2.5H2V5.5H0ZM20 5.5V2.5H17V0.5H20C20.55 0.5 21.021 0.695667 21.413 1.087C21.8043 1.479 22 1.95 22 2.5V5.5H20Z" fill="white"/>
</svg>
