<svg width="22" height="23" viewBox="0 0 22 23" fill="none" xmlns="http://www.w3.org/2000/svg">
<path d="M21.3889 0.5L21.1933 0.536667L14.6667 3.06667L7.33333 0.5L0.44 2.82222C0.183333 2.90778 0 3.12778 0 3.40889V21.8889C0 22.2311 0.268889 22.5 0.611111 22.5L0.806667 22.4633L7.33333 19.9333L14.6667 22.5L21.56 20.1778C21.8167 20.0922 22 19.8722 22 19.5911V1.11111C22 0.768889 21.7311 0.5 21.3889 0.5ZM8.55556 3.51889L13.4444 5.23V19.4811L8.55556 17.77V3.51889ZM2.44444 4.72889L6.11111 3.49444V17.7944L2.44444 19.2122V4.72889ZM19.5556 18.2711L15.8889 19.5056V5.21778L19.5556 3.8V18.2711Z" fill="white"/>
</svg>
