<svg width="28" height="23" viewBox="0 0 28 23" fill="none" xmlns="http://www.w3.org/2000/svg">
<path d="M22.25 10.125C22.25 11.0463 22.25 11.9537 22.25 12.875C23.9 12.875 26.045 12.875 27.75 12.875C27.75 11.9537 27.75 11.0463 27.75 10.125C26.045 10.125 23.9 10.125 22.25 10.125Z" fill="white"/>
<path d="M19.5 19.2138C20.82 20.19 22.5388 21.4825 23.9 22.5C24.45 21.7712 25 21.0287 25.55 20.3C24.1887 19.2825 22.47 17.99 21.15 17C20.6 17.7425 20.05 18.485 19.5 19.2138Z" fill="white"/>
<path d="M25.55 2.7C25 1.97125 24.45 1.22875 23.9 0.5C22.5388 1.5175 20.82 2.81 19.5 3.8C20.05 4.52875 20.6 5.27125 21.15 6C22.47 5.01 24.1887 3.73125 25.55 2.7Z" fill="white"/>
<path d="M3 7.375C1.4875 7.375 0.25 8.6125 0.25 10.125V12.875C0.25 14.3875 1.4875 15.625 3 15.625H4.375V21.125H7.125V15.625H8.5L15.375 19.75V3.25L8.5 7.375H3ZM9.91625 9.72625L12.625 8.10375V14.8963L9.91625 13.2738L9.25625 12.875H3V10.125H9.25625L9.91625 9.72625Z" fill="white"/>
</svg>
