<svg width="26" height="23" viewBox="0 0 26 23" fill="none" xmlns="http://www.w3.org/2000/svg">
<path d="M13.2444 20.1448C13.0463 20.3429 12.6941 20.3759 12.463 20.1448C12.2649 19.9467 12.2319 19.5945 12.463 19.3634L16.1939 15.6326L14.6421 14.0808L10.9113 17.8117C10.7021 18.0318 10.35 18.0208 10.1299 17.8117C9.89875 17.5805 9.93176 17.2284 10.1299 17.0303L13.8607 13.2994L12.309 11.7476L8.57809 15.4785C8.37999 15.6766 8.02781 15.7096 7.7967 15.4785C7.58759 15.2694 7.58759 14.9172 7.7967 14.6971L11.5276 10.9662L9.96478 9.41446L6.23391 13.1453C6.03582 13.3434 5.68364 13.3764 5.45252 13.1453C5.24342 12.9252 5.24342 12.584 5.45252 12.3639L10.2729 7.54352L12.331 9.59055C13.3765 10.6361 15.1814 10.6251 16.2269 9.59055C17.3055 8.51201 17.3055 6.77314 16.2269 5.6946L14.1799 3.64757L14.488 3.33942C15.3465 2.48099 16.7442 2.48099 17.6026 3.33942L22.2689 8.00575C23.1274 8.86418 23.1274 10.2619 22.2689 11.1203L13.2444 20.1448ZM23.8207 12.6831C25.5376 10.9662 25.5376 8.18184 23.8207 6.45398L19.1544 1.78764C17.4375 0.0707854 14.6531 0.0707854 12.9253 1.78764L12.6171 2.0958L12.309 1.78764C10.5921 0.0707854 7.8077 0.0707854 6.07984 1.78764L2.18389 5.68359C0.621108 7.24637 0.478037 9.67859 1.74367 11.3954L3.33947 9.79965C2.91025 8.97424 3.05332 7.92871 3.74667 7.23537L7.64262 3.33942C8.50105 2.48099 9.89875 2.48099 10.7572 3.33942L14.6751 7.25738C14.8732 7.45548 14.9063 7.80765 14.6751 8.03877C14.444 8.26989 14.0918 8.23687 13.8937 8.03877L10.2729 4.42896L3.88974 10.8012C2.8112 11.8687 2.8112 13.6186 3.88974 14.6971C4.31896 15.1263 4.86923 15.3904 5.45252 15.4675C5.52956 16.0398 5.78269 16.59 6.22291 17.0303C6.66313 17.4705 7.21341 17.7236 7.78569 17.8006C7.86273 18.3729 8.11586 18.9232 8.55608 19.3634C8.9963 19.8037 9.54657 20.0568 10.1189 20.1338C10.1959 20.7281 10.46 21.2674 10.8892 21.6966C11.4065 22.2139 12.0998 22.5 12.8372 22.5C13.5746 22.5 14.2679 22.2139 14.7852 21.6966L23.8207 12.6831Z" fill="white"/>
</svg>
