<svg width="22" height="23" viewBox="0 0 22 23" fill="none" xmlns="http://www.w3.org/2000/svg">
<path d="M11 3.1125C12.595 3.1125 13.8875 4.405 13.8875 6C13.8875 7.595 12.595 8.8875 11 8.8875C9.405 8.8875 8.1125 7.595 8.1125 6C8.1125 4.405 9.405 3.1125 11 3.1125ZM11 15.4875C15.0837 15.4875 19.3875 17.495 19.3875 18.375V19.8875H2.6125V18.375C2.6125 17.495 6.91625 15.4875 11 15.4875ZM11 0.5C7.96125 0.5 5.5 2.96125 5.5 6C5.5 9.03875 7.96125 11.5 11 11.5C14.0387 11.5 16.5 9.03875 16.5 6C16.5 2.96125 14.0387 0.5 11 0.5ZM11 12.875C7.32875 12.875 0 14.7175 0 18.375V22.5H22V18.375C22 14.7175 14.6713 12.875 11 12.875Z" fill="white"/>
</svg>
