<svg width="22" height="25" viewBox="0 0 22 25" fill="none" xmlns="http://www.w3.org/2000/svg">
<path d="M0 24.6V22.4H22V24.6H0ZM2.2 21.3V14.7C1.595 13.71 1.1275 12.6604 0.7975 11.5513C0.4675 10.4421 0.3025 9.31003 0.3025 8.15503C0.3025 7.03669 0.444583 5.93669 0.72875 4.85502C1.01292 3.77336 1.3475 2.71002 1.7325 1.66502C1.87917 1.28002 2.1175 0.972941 2.4475 0.743774C2.7775 0.514608 3.14417 0.400024 3.5475 0.400024C4.11583 0.400024 4.60167 0.592524 5.005 0.977524C5.40833 1.36252 5.57333 1.82086 5.5 2.35252L5.1975 4.85502C5.0875 5.73502 5.16542 6.56919 5.43125 7.35752C5.69708 8.14586 6.09583 8.83794 6.6275 9.43377C7.15917 10.0296 7.80083 10.5063 8.5525 10.8638C9.30417 11.2213 10.12 11.4 11 11.4C12.1 11.4 13.2046 11.5146 14.3138 11.7438C15.4229 11.9729 16.39 12.2984 17.215 12.72C18.04 13.1417 18.6771 13.6779 19.1263 14.3288C19.5754 14.9796 19.8 15.7817 19.8 16.735V21.3H2.2ZM4.4 19.1H17.6V16.735C17.6 16.295 17.49 15.9054 17.27 15.5663C17.05 15.2271 16.7383 14.9567 16.335 14.755C15.5833 14.3884 14.7125 14.1042 13.7225 13.9025C12.7325 13.7009 11.825 13.6 11 13.6C9.79 13.6 8.66708 13.3525 7.63125 12.8575C6.59542 12.3625 5.71542 11.6979 4.99125 10.8638C4.26708 10.0296 3.72167 9.06711 3.355 7.97627C2.98833 6.88544 2.87833 5.75336 3.025 4.58002C2.84167 5.13002 2.70875 5.71669 2.62625 6.34002C2.54375 6.96336 2.5025 7.56836 2.5025 8.15503C2.5025 9.21836 2.69042 10.2404 3.06625 11.2213C3.44208 12.2021 3.88667 13.16 4.4 14.095V19.1ZM11 10.3C9.79 10.3 8.75417 9.86919 7.8925 9.00752C7.03083 8.14586 6.6 7.11002 6.6 5.90002C6.6 4.69002 7.03083 3.65419 7.8925 2.79252C8.75417 1.93086 9.79 1.50002 11 1.50002C12.21 1.50002 13.2458 1.93086 14.1075 2.79252C14.9692 3.65419 15.4 4.69002 15.4 5.90002C15.4 7.11002 14.9692 8.14586 14.1075 9.00752C13.2458 9.86919 12.21 10.3 11 10.3ZM11 8.10002C11.605 8.10002 12.1229 7.88461 12.5538 7.45377C12.9846 7.02294 13.2 6.50502 13.2 5.90002C13.2 5.29502 12.9846 4.77711 12.5538 4.34627C12.1229 3.91544 11.605 3.70002 11 3.70002C10.395 3.70002 9.87708 3.91544 9.44625 4.34627C9.01542 4.77711 8.8 5.29502 8.8 5.90002C8.8 6.50502 9.01542 7.02294 9.44625 7.45377C9.87708 7.88461 10.395 8.10002 11 8.10002ZM6.6 21.3V20.2825C6.6 19.0542 7.02625 18 7.87875 17.12C8.73125 16.24 9.77167 15.8 11 15.8H15.4V18H11C10.3767 18 9.85417 18.2246 9.4325 18.6738C9.01083 19.1229 8.8 19.6592 8.8 20.2825V21.3H6.6Z" fill="white"/>
</svg>
