<svg width="26" height="23" viewBox="0 0 26 23" fill="none" xmlns="http://www.w3.org/2000/svg">
<path d="M9.6999 22.5H19.5999C20.5129 22.5 21.2939 21.95 21.6239 21.158L24.9459 13.403C25.0449 13.15 25.0999 12.886 25.0999 12.6V10.4C25.0999 9.19 24.1099 8.2 22.8999 8.2H15.9589L17.0039 3.173L17.0369 2.821C17.0369 2.37 16.8499 1.952 16.5529 1.655L15.3869 0.5L8.1379 7.749C7.7419 8.145 7.4999 8.695 7.4999 9.3V20.3C7.4999 21.51 8.4899 22.5 9.6999 22.5ZM9.6999 9.3L14.4739 4.526L12.9999 10.4H22.8999V12.6L19.5999 20.3H9.6999V9.3ZM0.899902 9.3H5.2999V22.5H0.899902V9.3Z" fill="white"/>
</svg>
