<svg width="20" height="20" viewBox="0 0 20 20" fill="none" xmlns="http://www.w3.org/2000/svg">
<path d="M10 20C8.61667 20 7.31667 19.7373 6.1 19.212C4.88333 18.6873 3.825 17.975 2.925 17.075C2.025 16.175 1.31267 15.1167 0.788 13.9C0.262667 12.6833 0 11.3833 0 10C0 8.61667 0.262667 7.31667 0.788 6.1C1.31267 4.88333 2.025 3.825 2.925 2.925C3.825 2.025 4.88333 1.31233 6.1 0.787C7.31667 0.262333 8.61667 0 10 0C11.3833 0 12.6833 0.262333 13.9 0.787C15.1167 1.31233 16.175 2.025 17.075 2.925C17.975 3.825 18.6873 4.88333 19.212 6.1C19.7373 7.31667 20 8.61667 20 10C20 11.3833 19.7373 12.6833 19.212 13.9C18.6873 15.1167 17.975 16.175 17.075 17.075C16.175 17.975 15.1167 18.6873 13.9 19.212C12.6833 19.7373 11.3833 20 10 20ZM10 18C12.2167 18 14.1043 17.221 15.663 15.663C17.221 14.1043 18 12.2167 18 10C18 7.78333 17.221 5.89567 15.663 4.337C14.1043 2.779 12.2167 2 10 2C7.78333 2 5.896 2.779 4.338 4.337C2.77933 5.89567 2 7.78333 2 10C2 12.2167 2.77933 14.1043 4.338 15.663C5.896 17.221 7.78333 18 10 18ZM11.5 8.9L12 8.6C12.0333 8.98333 12.1917 9.31233 12.475 9.587C12.7583 9.86233 13.1 10 13.5 10C13.9167 10 14.2707 9.854 14.562 9.562C14.854 9.27067 15 8.91667 15 8.5C15 8.23333 14.9417 7.99167 14.825 7.775C14.7083 7.55833 14.55 7.38333 14.35 7.25L15 6.875L14.5 6L11 8L11.5 8.9ZM8.5 8.9L9 8L5.5 6L5 6.875L5.65 7.25C5.45 7.38333 5.29167 7.55833 5.175 7.775C5.05833 7.99167 5 8.23333 5 8.5C5 8.91667 5.146 9.27067 5.438 9.562C5.72933 9.854 6.08333 10 6.5 10C6.9 10 7.24167 9.86233 7.525 9.587C7.80833 9.31233 7.96667 8.98333 8 8.6L8.5 8.9ZM10 11C8.81667 11 7.775 11.379 6.875 12.137C5.975 12.8957 5.34167 13.85 4.975 15H15.025C14.6583 13.85 14.025 12.8957 13.125 12.137C12.225 11.379 11.1833 11 10 11Z" fill="#671A1A"/>
</svg>
