<svg width="22" height="23" viewBox="0 0 22 23" fill="none" xmlns="http://www.w3.org/2000/svg">
<path d="M8.25 5.45V8.75H4.95V5.45H8.25ZM9.9 3.8H3.3V10.4H9.9V3.8ZM8.25 14.25V17.55H4.95V14.25H8.25ZM9.9 12.6H3.3V19.2H9.9V12.6ZM17.05 5.45V8.75H13.75V5.45H17.05ZM18.7 3.8H12.1V10.4H18.7V3.8ZM12.1 12.6H13.75V14.25H12.1V12.6ZM13.75 14.25H15.4V15.9H13.75V14.25ZM15.4 12.6H17.05V14.25H15.4V12.6ZM12.1 15.9H13.75V17.55H12.1V15.9ZM13.75 17.55H15.4V19.2H13.75V17.55ZM15.4 15.9H17.05V17.55H15.4V15.9ZM17.05 14.25H18.7V15.9H17.05V14.25ZM17.05 17.55H18.7V19.2H17.05V17.55ZM22 6H19.8V2.7H16.5V0.5H22V6ZM22 22.5V17H19.8V20.3H16.5V22.5H22ZM0 22.5H5.5V20.3H2.2V17H0V22.5ZM0 0.5V6H2.2V2.7H5.5V0.5H0Z" fill="white"/>
</svg>
