<svg width="23" height="22" viewBox="0 0 23 22" fill="none" xmlns="http://www.w3.org/2000/svg">
<path d="M10.775 17.6H12.975V15.4H10.775V17.6ZM11.875 0C5.803 0 0.875 4.928 0.875 11C0.875 17.072 5.803 22 11.875 22C17.947 22 22.875 17.072 22.875 11C22.875 4.928 17.947 0 11.875 0ZM11.875 19.8C7.024 19.8 3.075 15.851 3.075 11C3.075 6.149 7.024 2.2 11.875 2.2C16.726 2.2 20.675 6.149 20.675 11C20.675 15.851 16.726 19.8 11.875 19.8ZM11.875 4.4C9.444 4.4 7.475 6.369 7.475 8.8H9.675C9.675 7.59 10.665 6.6 11.875 6.6C13.085 6.6 14.075 7.59 14.075 8.8C14.075 11 10.775 10.725 10.775 14.3H12.975C12.975 11.825 16.275 11.55 16.275 8.8C16.275 6.369 14.306 4.4 11.875 4.4Z" fill="#28367B"/>
</svg>
