<svg width="23" height="23" viewBox="0 0 23 23" fill="none" xmlns="http://www.w3.org/2000/svg">
<path d="M2.5 22.5C1.95 22.5 1.47933 22.3043 1.088 21.913C0.696 21.521 0.5 21.05 0.5 20.5V17.5H2.5V20.5H5.5V22.5H2.5ZM17.5 22.5V20.5H20.5V17.5H22.5V20.5C22.5 21.05 22.3043 21.521 21.913 21.913C21.521 22.3043 21.05 22.5 20.5 22.5H17.5ZM4.5 18.5V15.15C4.5 14.8167 4.571 14.5083 4.713 14.225C4.85433 13.9417 5.05833 13.7083 5.325 13.525C6.175 12.8917 7.15433 12.3957 8.263 12.037C9.371 11.679 10.45 11.5 11.5 11.5C12.55 11.5 13.6293 11.679 14.738 12.037C15.846 12.3957 16.825 12.8917 17.675 13.525C17.9417 13.7083 18.146 13.9417 18.288 14.225C18.4293 14.5083 18.5 14.8167 18.5 15.15V18.5H4.5ZM6.5 16.5H16.5V15.15C15.8 14.6333 15.0083 14.2293 14.125 13.938C13.2417 13.646 12.3667 13.5 11.5 13.5C10.6333 13.5 9.75833 13.6417 8.875 13.925C7.99167 14.2083 7.2 14.6083 6.5 15.125V16.5ZM11.5 10.5C10.4 10.5 9.45833 10.1083 8.675 9.325C7.89167 8.54167 7.5 7.6 7.5 6.5C7.5 5.4 7.89167 4.45833 8.675 3.675C9.45833 2.89167 10.4 2.5 11.5 2.5C12.6 2.5 13.5417 2.89167 14.325 3.675C15.1083 4.45833 15.5 5.4 15.5 6.5C15.5 7.6 15.1083 8.54167 14.325 9.325C13.5417 10.1083 12.6 10.5 11.5 10.5ZM11.5 8.5C12.05 8.5 12.521 8.304 12.913 7.912C13.3043 7.52067 13.5 7.05 13.5 6.5C13.5 5.95 13.3043 5.47933 12.913 5.088C12.521 4.696 12.05 4.5 11.5 4.5C10.95 4.5 10.4793 4.696 10.088 5.088C9.696 5.47933 9.5 5.95 9.5 6.5C9.5 7.05 9.696 7.52067 10.088 7.912C10.4793 8.304 10.95 8.5 11.5 8.5ZM0.5 5.5V2.5C0.5 1.95 0.696 1.479 1.088 1.087C1.47933 0.695667 1.95 0.5 2.5 0.5H5.5V2.5H2.5V5.5H0.5ZM20.5 5.5V2.5H17.5V0.5H20.5C21.05 0.5 21.521 0.695667 21.913 1.087C22.3043 1.479 22.5 1.95 22.5 2.5V5.5H20.5Z" fill="white"/>
</svg>
