<svg width="16" height="23" viewBox="0 0 16 23" fill="none" xmlns="http://www.w3.org/2000/svg">
<path d="M8.00005 0.5C3.74305 0.5 0.300049 3.943 0.300049 8.2C0.300049 13.975 8.00005 22.5 8.00005 22.5C8.00005 22.5 15.7 13.975 15.7 8.2C15.7 3.943 12.257 0.5 8.00005 0.5ZM2.50005 8.2C2.50005 5.164 4.96405 2.7 8.00005 2.7C11.036 2.7 13.5 5.164 13.5 8.2C13.5 11.368 10.332 16.109 8.00005 19.068C5.71205 16.131 2.50005 11.335 2.50005 8.2Z" fill="white"/>
<path d="M8.00005 10.95C9.51883 10.95 10.75 9.71878 10.75 8.2C10.75 6.68122 9.51883 5.45 8.00005 5.45C6.48127 5.45 5.25005 6.68122 5.25005 8.2C5.25005 9.71878 6.48127 10.95 8.00005 10.95Z" fill="white"/>
</svg>
