<svg width="13" height="23" viewBox="0 0 13 23" fill="none" xmlns="http://www.w3.org/2000/svg">
<path d="M12.7443 20.1448C12.5462 20.3429 12.194 20.3759 11.9629 20.1448C11.7648 19.9467 11.7318 19.5945 11.9629 19.3634L15.6938 15.6326L14.142 14.0808L10.4111 17.8117C10.202 18.0318 9.84985 18.0208 9.62974 17.8117C9.39863 17.5805 9.43164 17.2284 9.62974 17.0303L13.3606 13.2994L11.8088 11.7476L8.07796 15.4785C7.87987 15.6766 7.52769 15.7096 7.29657 15.4785C7.08747 15.2694 7.08747 14.9172 7.29657 14.6971L11.0274 10.9662L9.46466 9.41446L5.73379 13.1453C5.53569 13.3434 5.18352 13.3764 4.9524 13.1453C4.7433 12.9252 4.7433 12.584 4.9524 12.3639L9.77281 7.54352L11.8308 9.59055C12.8764 10.6361 14.6813 10.6251 15.7268 9.59055C16.8053 8.51201 16.8053 6.77314 15.7268 5.6946L13.6798 3.64757L13.9879 3.33942C14.8463 2.48099 16.244 2.48099 17.1025 3.33942L21.7688 8.00575C22.6272 8.86418 22.6272 10.2619 21.7688 11.1203L12.7443 20.1448ZM23.3206 12.6831C25.0374 10.9662 25.0374 8.18184 23.3206 6.45398L18.6543 1.78764C16.9374 0.0707854 14.153 0.0707854 12.4251 1.78764L12.117 2.0958L11.8088 1.78764C10.092 0.0707854 7.30758 0.0707854 5.57972 1.78764L1.68377 5.68359C0.120986 7.24637 -0.0220853 9.67859 1.24355 11.3954L2.83935 9.79965C2.41013 8.97424 2.5532 7.92871 3.24655 7.23537L7.1425 3.33942C8.00093 2.48099 9.39862 2.48099 10.2571 3.33942L14.175 7.25738C14.3731 7.45548 14.4061 7.80765 14.175 8.03877C13.9439 8.26989 13.5917 8.23687 13.3936 8.03877L9.77281 4.42896L3.38962 10.8012C2.31108 11.8687 2.31108 13.6186 3.38962 14.6971C3.81884 15.1263 4.36911 15.3904 4.9524 15.4675C5.02944 16.0398 5.28257 16.59 5.72279 17.0303C6.16301 17.4705 6.71328 17.7236 7.28557 17.8006C7.36261 18.3729 7.61573 18.9232 8.05595 19.3634C8.49617 19.8037 9.04645 20.0568 9.61874 20.1338C9.69577 20.7281 9.95991 21.2674 10.3891 21.6966C10.9064 22.2139 11.5997 22.5 12.3371 22.5C13.0745 22.5 13.7678 22.2139 14.2851 21.6966L23.3206 12.6831Z" fill="#28367B"/>
</svg>
