<svg width="17" height="15" viewBox="0 0 17 15" fill="none" xmlns="http://www.w3.org/2000/svg">
<path d="M11.745 0C10.3356 0 8.9829 0.662125 8.1 1.70845C7.2171 0.662125 5.8644 0 4.455 0C1.9602 0 0 1.9782 0 4.49591C0 7.58583 2.754 10.1035 6.9255 13.9292L8.1 15L9.2745 13.921C13.446 10.1035 16.2 7.58583 16.2 4.49591C16.2 1.9782 14.2398 0 11.745 0ZM8.181 12.7112L8.1 12.7929L8.019 12.7112C4.1634 9.18801 1.62 6.85831 1.62 4.49591C1.62 2.86104 2.835 1.63488 4.455 1.63488C5.7024 1.63488 6.9174 2.44414 7.3467 3.56403H8.8614C9.2826 2.44414 10.4976 1.63488 11.745 1.63488C13.365 1.63488 14.58 2.86104 14.58 4.49591C14.58 6.85831 12.0366 9.18801 8.181 12.7112Z" fill="#28367B"/>
</svg>
