<svg width="23" height="23" viewBox="0 0 23 23" fill="none" xmlns="http://www.w3.org/2000/svg">
<path d="M21.8889 0.5L21.6933 0.536667L15.1667 3.06667L7.83333 0.5L0.94 2.82222C0.683333 2.90778 0.5 3.12778 0.5 3.40889V21.8889C0.5 22.2311 0.768889 22.5 1.11111 22.5L1.30667 22.4633L7.83333 19.9333L15.1667 22.5L22.06 20.1778C22.3167 20.0922 22.5 19.8722 22.5 19.5911V1.11111C22.5 0.768889 22.2311 0.5 21.8889 0.5ZM9.05556 3.51889L13.9444 5.23V19.4811L9.05556 17.77V3.51889ZM2.94444 4.72889L6.61111 3.49444V17.7944L2.94444 19.2122V4.72889ZM20.0556 18.2711L16.3889 19.5056V5.21778L20.0556 3.8V18.2711Z" fill="#28367B"/>
</svg>
