<svg width="26" height="23" viewBox="0 0 26 23" fill="none" xmlns="http://www.w3.org/2000/svg">
<path d="M13.2443 20.1448C13.0462 20.3429 12.694 20.3759 12.4629 20.1448C12.2648 19.9467 12.2318 19.5945 12.4629 19.3634L16.1938 15.6326L14.642 14.0808L10.9111 17.8117C10.702 18.0318 10.3499 18.0208 10.1297 17.8117C9.89863 17.5805 9.93164 17.2284 10.1297 17.0303L13.8606 13.2994L12.3088 11.7476L8.57796 15.4785C8.37987 15.6766 8.02769 15.7096 7.79657 15.4785C7.58747 15.2694 7.58747 14.9172 7.79657 14.6971L11.5274 10.9662L9.96466 9.41446L6.23379 13.1453C6.03569 13.3434 5.68352 13.3764 5.4524 13.1453C5.2433 12.9252 5.2433 12.584 5.4524 12.3639L10.2728 7.54352L12.3308 9.59055C13.3764 10.6361 15.1813 10.6251 16.2268 9.59055C17.3053 8.51201 17.3053 6.77314 16.2268 5.6946L14.1798 3.64757L14.4879 3.33942C15.3463 2.48099 16.744 2.48099 17.6025 3.33942L22.2688 8.00575C23.1272 8.86418 23.1272 10.2619 22.2688 11.1203L13.2443 20.1448ZM23.8206 12.6831C25.5374 10.9662 25.5374 8.18184 23.8206 6.45398L19.1543 1.78764C17.4374 0.0707854 14.653 0.0707854 12.9251 1.78764L12.617 2.0958L12.3088 1.78764C10.592 0.0707854 7.80758 0.0707854 6.07972 1.78764L2.18377 5.68359C0.620986 7.24637 0.477915 9.67859 1.74355 11.3954L3.33935 9.79965C2.91013 8.97424 3.0532 7.92871 3.74655 7.23537L7.6425 3.33942C8.50093 2.48099 9.89862 2.48099 10.7571 3.33942L14.675 7.25738C14.8731 7.45548 14.9061 7.80765 14.675 8.03877C14.4439 8.26989 14.0917 8.23687 13.8936 8.03877L10.2728 4.42896L3.88962 10.8012C2.81108 11.8687 2.81108 13.6186 3.88962 14.6971C4.31884 15.1263 4.86911 15.3904 5.4524 15.4675C5.52944 16.0398 5.78257 16.59 6.22279 17.0303C6.66301 17.4705 7.21328 17.7236 7.78557 17.8006C7.86261 18.3729 8.11573 18.9232 8.55595 19.3634C8.99617 19.8037 9.54645 20.0568 10.1187 20.1338C10.1958 20.7281 10.4599 21.2674 10.8891 21.6966C11.4064 22.2139 12.0997 22.5 12.8371 22.5C13.5745 22.5 14.2678 22.2139 14.7851 21.6966L23.8206 12.6831Z" fill="white"/>
</svg>
